<svg width="26" height="26" viewBox="0 0 26 26" fill="none" xmlns="http://www.w3.org/2000/svg">
<path d="M13.125 25.5C11.375 25.5 9.73458 25.1667 8.20375 24.5C6.67292 23.8333 5.33958 22.9325 4.20375 21.7975C3.06792 20.6625 2.16667 19.3292 1.5 17.7975C0.833333 16.2658 0.5 14.625 0.5 12.875C0.5 9.83333 1.46875 7.15125 3.40625 4.82875C5.34375 2.50625 7.8125 1.06333 10.8125 0.5C10.4375 2.5625 10.5521 4.57833 11.1562 6.5475C11.7604 8.51667 12.8021 10.2404 14.2812 11.7188C15.7604 13.1971 17.4846 14.2388 19.4538 14.8438C21.4229 15.4488 23.4383 15.5633 25.5 15.1875C24.9583 18.1875 23.5208 20.6562 21.1875 22.5937C18.8542 24.5312 16.1667 25.5 13.125 25.5Z" fill="#FFD233"/>
</svg>
