<svg width="41" height="40" viewBox="0 0 41 40" fill="none" xmlns="http://www.w3.org/2000/svg">
<path d="M19.2188 6.25V2.5C19.2188 2.16848 19.3537 1.85054 19.594 1.61612C19.8343 1.3817 20.1602 1.25 20.5 1.25C20.8398 1.25 21.1657 1.3817 21.406 1.61612C21.6463 1.85054 21.7812 2.16848 21.7812 2.5V6.25C21.7812 6.58152 21.6463 6.89946 21.406 7.13388C21.1657 7.3683 20.8398 7.5 20.5 7.5C20.1602 7.5 19.8343 7.3683 19.594 7.13388C19.3537 6.89946 19.2188 6.58152 19.2188 6.25ZM30.75 20C30.75 21.9778 30.1488 23.9112 29.0226 25.5557C27.8963 27.2002 26.2954 28.4819 24.4225 29.2388C22.5496 29.9957 20.4886 30.1937 18.5003 29.8079C16.512 29.422 14.6856 28.4696 13.2522 27.0711C11.8187 25.6725 10.8425 23.8907 10.447 21.9509C10.0515 20.0111 10.2544 18.0004 11.0302 16.1732C11.806 14.3459 13.1198 12.7841 14.8054 11.6853C16.491 10.5865 18.4727 10 20.5 10C23.2176 10.0029 25.823 11.0574 27.7446 12.9321C29.6662 14.8069 30.747 17.3487 30.75 20ZM28.1875 20C28.1875 18.5166 27.7366 17.0666 26.8919 15.8332C26.0472 14.5999 24.8466 13.6386 23.4419 13.0709C22.0372 12.5032 20.4915 12.3547 19.0002 12.6441C17.509 12.9335 16.1392 13.6478 15.0641 14.6967C13.989 15.7456 13.2568 17.082 12.9602 18.5368C12.6636 19.9917 12.8158 21.4997 13.3977 22.8701C13.9795 24.2406 14.9649 25.4119 16.2291 26.236C17.4933 27.0601 18.9796 27.5 20.5 27.5C22.5382 27.4979 24.4923 26.7071 25.9335 25.301C27.3748 23.8949 28.1854 21.9885 28.1875 20ZM9.34352 10.8844C9.58393 11.1189 9.91 11.2507 10.25 11.2507C10.59 11.2507 10.9161 11.1189 11.1565 10.8844C11.3969 10.6498 11.532 10.3317 11.532 10C11.532 9.66829 11.3969 9.35018 11.1565 9.11562L8.59398 6.61562C8.35357 6.38107 8.0275 6.2493 7.6875 6.2493C7.3475 6.24931 7.02143 6.38107 6.78102 6.61562C6.5406 6.85018 6.40554 7.16829 6.40554 7.5C6.40554 7.83171 6.5406 8.14982 6.78102 8.38438L9.34352 10.8844ZM9.34352 29.1156L6.78102 31.6156C6.5406 31.8502 6.40554 32.1683 6.40554 32.5C6.40554 32.8317 6.5406 33.1498 6.78102 33.3844C7.02143 33.6189 7.3475 33.7507 7.6875 33.7507C8.0275 33.7507 8.35357 33.6189 8.59398 33.3844L11.1565 30.8844C11.2755 30.7682 11.37 30.6304 11.4344 30.4786C11.4988 30.3269 11.532 30.1642 11.532 30C11.532 29.8358 11.4988 29.6731 11.4344 29.5214C11.37 29.3696 11.2755 29.2318 11.1565 29.1156C11.0374 28.9995 10.8961 28.9074 10.7406 28.8445C10.5851 28.7817 10.4183 28.7493 10.25 28.7493C10.0817 28.7493 9.91495 28.7817 9.75941 28.8445C9.60388 28.9074 9.46256 28.9995 9.34352 29.1156ZM30.75 11.25C30.9183 11.2501 31.085 11.2179 31.2405 11.1552C31.3961 11.0924 31.5374 11.0004 31.6565 10.8844L34.219 8.38438C34.4594 8.14982 34.5945 7.83171 34.5945 7.5C34.5945 7.16829 34.4594 6.85018 34.219 6.61562C33.9786 6.38107 33.6525 6.24931 33.3125 6.2493C32.9725 6.2493 32.6464 6.38107 32.406 6.61562L29.8435 9.11562C29.6641 9.29044 29.5419 9.51326 29.4924 9.75587C29.4429 9.99847 29.4683 10.25 29.5653 10.4785C29.6624 10.707 29.8268 10.9023 30.0376 11.0396C30.2485 11.177 30.4964 11.2502 30.75 11.25ZM31.6565 29.1156C31.4161 28.8811 31.09 28.7493 30.75 28.7493C30.41 28.7493 30.0839 28.8811 29.8435 29.1156C29.6031 29.3502 29.468 29.6683 29.468 30C29.468 30.3317 29.6031 30.6498 29.8435 30.8844L32.406 33.3844C32.5251 33.5005 32.6664 33.5926 32.8219 33.6555C32.9774 33.7183 33.1441 33.7507 33.3125 33.7507C33.4809 33.7507 33.6476 33.7183 33.8031 33.6555C33.9586 33.5926 34.0999 33.5005 34.219 33.3844C34.338 33.2682 34.4325 33.1304 34.4969 32.9786C34.5613 32.8269 34.5945 32.6642 34.5945 32.5C34.5945 32.3358 34.5613 32.1731 34.4969 32.0214C34.4325 31.8696 34.338 31.7318 34.219 31.6156L31.6565 29.1156ZM7.6875 20C7.6875 19.6685 7.55251 19.3505 7.31223 19.1161C7.07195 18.8817 6.74606 18.75 6.40625 18.75H2.5625C2.22269 18.75 1.8968 18.8817 1.65652 19.1161C1.41624 19.3505 1.28125 19.6685 1.28125 20C1.28125 20.3315 1.41624 20.6495 1.65652 20.8839C1.8968 21.1183 2.22269 21.25 2.5625 21.25H6.40625C6.74606 21.25 7.07195 21.1183 7.31223 20.8839C7.55251 20.6495 7.6875 20.3315 7.6875 20ZM20.5 32.5C20.1602 32.5 19.8343 32.6317 19.594 32.8661C19.3537 33.1005 19.2188 33.4185 19.2188 33.75V37.5C19.2188 37.8315 19.3537 38.1495 19.594 38.3839C19.8343 38.6183 20.1602 38.75 20.5 38.75C20.8398 38.75 21.1657 38.6183 21.406 38.3839C21.6463 38.1495 21.7812 37.8315 21.7812 37.5V33.75C21.7812 33.4185 21.6463 33.1005 21.406 32.8661C21.1657 32.6317 20.8398 32.5 20.5 32.5ZM38.4375 18.75H34.5938C34.2539 18.75 33.9281 18.8817 33.6878 19.1161C33.4475 19.3505 33.3125 19.6685 33.3125 20C33.3125 20.3315 33.4475 20.6495 33.6878 20.8839C33.9281 21.1183 34.2539 21.25 34.5938 21.25H38.4375C38.7773 21.25 39.1032 21.1183 39.3435 20.8839C39.5838 20.6495 39.7188 20.3315 39.7188 20C39.7188 19.6685 39.5838 19.3505 39.3435 19.1161C39.1032 18.8817 38.7773 18.75 38.4375 18.75Z" fill="#FFD233"/>
</svg>
