<svg width="133" height="93" viewBox="0 0 133 93" fill="none" xmlns="http://www.w3.org/2000/svg">
<path d="M19.8464 39.6927C27.1441 39.6927 33.0773 33.7595 33.0773 26.4618C33.0773 19.1642 27.1441 13.2309 19.8464 13.2309C12.5487 13.2309 6.61546 19.1642 6.61546 26.4618C6.61546 33.7595 12.5487 39.6927 19.8464 39.6927ZM112.463 39.6927C119.76 39.6927 125.694 33.7595 125.694 26.4618C125.694 19.1642 119.76 13.2309 112.463 13.2309C105.165 13.2309 99.2319 19.1642 99.2319 26.4618C99.2319 33.7595 105.165 39.6927 112.463 39.6927ZM119.078 46.3082H105.847C102.209 46.3082 98.9218 47.776 96.5237 50.1534C104.855 54.7222 110.768 62.9709 112.049 72.77H125.694C129.353 72.77 132.309 69.8138 132.309 66.1546V59.5391C132.309 52.2414 126.376 46.3082 119.078 46.3082ZM66.1546 46.3082C78.9514 46.3082 89.3087 35.9509 89.3087 23.1541C89.3087 10.3573 78.9514 0 66.1546 0C53.3578 0 43.0005 10.3573 43.0005 23.1541C43.0005 35.9509 53.3578 46.3082 66.1546 46.3082ZM82.0317 52.9237H80.3158C76.0157 54.991 71.2402 56.2314 66.1546 56.2314C61.0689 56.2314 56.3141 54.991 51.9934 52.9237H50.2775C37.1293 52.9237 26.4618 63.5911 26.4618 76.7393V82.6932C26.4618 88.1717 30.9066 92.6164 36.385 92.6164H95.9241C101.403 92.6164 105.847 88.1717 105.847 82.6932V76.7393C105.847 63.5911 95.1799 52.9237 82.0317 52.9237ZM35.7855 50.1534C33.3874 47.776 30.1003 46.3082 26.4618 46.3082H13.2309C5.93324 46.3082 0 52.2414 0 59.5391V66.1546C0 69.8138 2.95628 72.77 6.61546 72.77H20.2392C21.5416 62.9709 27.4542 54.7222 35.7855 50.1534Z" fill="#5B5FC7"/>
</svg>

