<svg width="100" height="100" viewBox="0 0 100 100" fill="none" xmlns="http://www.w3.org/2000/svg">
<path d="M30 31.2495H35V6.24952H30C24.4766 6.24952 20 11.8452 20 18.7495C20 25.6538 24.4766 31.2495 30 31.2495ZM0 81.2494C0 88.1537 4.47656 93.7494 10 93.7494H15V68.7494H10C4.47656 68.7494 0 74.3451 0 81.2494ZM52.7281 56.2494C47.2734 56.2494 40.8281 58.8119 36.3641 62.4994C32.4906 65.6986 29.4078 68.7494 20 68.7494V93.7494L28.9891 96.8685C33.0844 98.2904 37.2719 99.431 41.5375 99.808C46.6453 100.259 51.7875 99.9388 56.7844 98.597C73.8906 94.0033 80 83.8314 80 74.9994C80 62.4994 66.8469 56.2494 52.7281 56.2494ZM76.7844 1.40383C71.7875 0.0620344 66.6453 -0.260231 61.5375 0.192893C57.2719 0.569846 53.0844 1.71047 48.9891 3.13039L40 6.24952V31.2495C49.4063 31.2495 52.4906 34.3003 56.3641 37.4995C60.8281 41.187 67.2734 43.7495 72.7281 43.7495C86.8469 43.7495 100 37.4995 100 24.9995C100 16.1675 93.8906 5.99562 76.7844 1.40383Z" fill="white"/>
</svg>
